<svg xmlns="http://www.w3.org/2000/svg" xmlns:xlink="http://www.w3.org/1999/xlink" width="500" zoomAndPan="magnify" viewBox="0 0 375 374.999991" height="500" preserveAspectRatio="xMidYMid meet" version="1.0"><defs><g/></defs><g fill="#ffffff" fill-opacity="1"><g transform="translate(9.743992, 201.534143)"><g><path d="M 19.109375 -20 L 27.0625 -20 C 28.695312 -19.945312 29.695312 -19.523438 30.0625 -18.734375 C 30.363281 -18.160156 30.515625 -17.316406 30.515625 -16.203125 L 30.515625 -6.25 C 30.515625 -5.28125 30.085938 -4.359375 29.234375 -3.484375 C 26.703125 -0.859375 22.898438 0.453125 17.828125 0.453125 C 13.335938 0.453125 9.429688 -1.242188 6.109375 -4.640625 C 2.785156 -8.035156 1.125 -12.128906 1.125 -16.921875 C 1.125 -21.722656 2.8125 -25.726562 6.1875 -28.9375 C 9.570312 -32.15625 13.5625 -33.765625 18.15625 -33.765625 C 21.71875 -33.765625 25.082031 -32.585938 28.25 -30.234375 C 29.0625 -29.628906 29.46875 -28.957031 29.46875 -28.21875 C 29.46875 -27.476562 29.117188 -26.628906 28.421875 -25.671875 C 27.242188 -24.066406 26.175781 -23.265625 25.21875 -23.265625 C 24.644531 -23.265625 23.722656 -23.675781 22.453125 -24.5 C 21.179688 -25.332031 19.671875 -25.75 17.921875 -25.75 C 15.628906 -25.75 13.59375 -24.941406 11.8125 -23.328125 C 10.03125 -21.710938 9.140625 -19.597656 9.140625 -16.984375 C 9.140625 -14.378906 10.046875 -12.164062 11.859375 -10.34375 C 13.671875 -8.519531 15.722656 -7.609375 18.015625 -7.609375 C 19.671875 -7.609375 21.164062 -7.878906 22.5 -8.421875 L 22.5 -13.359375 L 18.921875 -13.359375 C 17.984375 -13.359375 17.316406 -13.476562 16.921875 -13.71875 C 16.535156 -13.957031 16.28125 -14.3125 16.15625 -14.78125 C 16.039062 -15.25 15.984375 -15.878906 15.984375 -16.671875 C 15.984375 -17.472656 16.050781 -18.113281 16.1875 -18.59375 C 16.320312 -19.082031 16.566406 -19.414062 16.921875 -19.59375 C 17.472656 -19.863281 18.203125 -20 19.109375 -20 Z M 19.109375 -20 "/></g></g></g><g fill="#ffffff" fill-opacity="1"><g transform="translate(42.051834, 201.534143)"><g><path d="M 27.203125 -5.609375 C 27.660156 -4.523438 27.890625 -3.742188 27.890625 -3.265625 C 27.890625 -2.109375 26.953125 -1.140625 25.078125 -0.359375 C 24.109375 0.0546875 23.328125 0.265625 22.734375 0.265625 C 22.148438 0.265625 21.671875 0.125 21.296875 -0.15625 C 20.921875 -0.445312 20.640625 -0.742188 20.453125 -1.046875 C 20.148438 -1.617188 18.972656 -4.347656 16.921875 -9.234375 L 15.53125 -9.140625 L 9.828125 -9.140625 L 9.828125 -4.03125 C 9.828125 -3.332031 9.800781 -2.8125 9.75 -2.46875 C 9.707031 -2.125 9.566406 -1.722656 9.328125 -1.265625 C 8.898438 -0.453125 7.722656 -0.046875 5.796875 -0.046875 C 3.679688 -0.046875 2.441406 -0.601562 2.078125 -1.71875 C 1.898438 -2.226562 1.8125 -3.015625 1.8125 -4.078125 L 1.8125 -29.203125 C 1.8125 -29.890625 1.832031 -30.40625 1.875 -30.75 C 1.925781 -31.101562 2.070312 -31.503906 2.3125 -31.953125 C 2.726562 -32.773438 3.90625 -33.1875 5.84375 -33.1875 L 15.609375 -33.1875 C 18.265625 -33.1875 20.847656 -32.21875 23.359375 -30.28125 C 24.566406 -29.34375 25.5625 -28.070312 26.34375 -26.46875 C 27.125 -24.875 27.515625 -23.097656 27.515625 -21.140625 C 27.515625 -17.734375 26.382812 -14.925781 24.125 -12.71875 C 24.789062 -11.125 25.816406 -8.753906 27.203125 -5.609375 Z M 9.828125 -17.15625 L 15.609375 -17.15625 C 16.484375 -17.15625 17.359375 -17.484375 18.234375 -18.140625 C 19.117188 -18.804688 19.5625 -19.800781 19.5625 -21.125 C 19.5625 -22.457031 19.117188 -23.460938 18.234375 -24.140625 C 17.359375 -24.828125 16.457031 -25.171875 15.53125 -25.171875 L 9.828125 -25.171875 Z M 9.828125 -17.15625 "/></g></g></g><g fill="#ffffff" fill-opacity="1"><g transform="translate(70.604011, 201.534143)"><g><path d="M 20.953125 -30.828125 L 33.1875 -5.5625 C 33.695312 -4.539062 33.953125 -3.773438 33.953125 -3.265625 C 33.953125 -2.171875 33.078125 -1.1875 31.328125 -0.3125 C 30.296875 0.195312 29.484375 0.453125 28.890625 0.453125 C 28.304688 0.453125 27.828125 0.316406 27.453125 0.046875 C 27.078125 -0.222656 26.804688 -0.507812 26.640625 -0.8125 C 26.472656 -1.113281 26.238281 -1.566406 25.9375 -2.171875 L 23.578125 -7.0625 L 11.046875 -7.0625 L 8.6875 -2.171875 C 8.382812 -1.566406 8.148438 -1.128906 7.984375 -0.859375 C 7.816406 -0.585938 7.546875 -0.304688 7.171875 -0.015625 C 6.796875 0.265625 6.3125 0.40625 5.71875 0.40625 C 5.132812 0.40625 4.328125 0.148438 3.296875 -0.359375 C 1.546875 -1.203125 0.671875 -2.171875 0.671875 -3.265625 C 0.671875 -3.773438 0.929688 -4.539062 1.453125 -5.5625 L 13.671875 -30.875 C 14.003906 -31.5625 14.507812 -32.117188 15.1875 -32.546875 C 15.863281 -32.972656 16.582031 -33.1875 17.34375 -33.1875 C 18.96875 -33.1875 20.171875 -32.398438 20.953125 -30.828125 Z M 17.296875 -19.96875 L 14.296875 -13.765625 L 20.328125 -13.765625 Z M 17.296875 -19.96875 "/></g></g></g><g fill="#ffffff" fill-opacity="1"><g transform="translate(105.219569, 201.534143)"><g><path d="M 26.296875 -26.46875 C 27.078125 -24.875 27.46875 -23.097656 27.46875 -21.140625 C 27.46875 -19.179688 27.078125 -17.40625 26.296875 -15.8125 C 25.515625 -14.226562 24.503906 -12.972656 23.265625 -12.046875 C 20.765625 -10.109375 18.171875 -9.140625 15.484375 -9.140625 L 9.828125 -9.140625 L 9.828125 -4.03125 C 9.828125 -3.332031 9.800781 -2.8125 9.75 -2.46875 C 9.707031 -2.125 9.566406 -1.722656 9.328125 -1.265625 C 8.898438 -0.453125 7.722656 -0.046875 5.796875 -0.046875 C 3.679688 -0.046875 2.441406 -0.601562 2.078125 -1.71875 C 1.898438 -2.226562 1.8125 -3.015625 1.8125 -4.078125 L 1.8125 -29.203125 C 1.8125 -29.890625 1.832031 -30.40625 1.875 -30.75 C 1.925781 -31.101562 2.070312 -31.503906 2.3125 -31.953125 C 2.726562 -32.773438 3.90625 -33.1875 5.84375 -33.1875 L 15.53125 -33.1875 C 18.1875 -33.1875 20.765625 -32.21875 23.265625 -30.28125 C 24.503906 -29.34375 25.515625 -28.070312 26.296875 -26.46875 Z M 15.53125 -17.15625 C 16.4375 -17.15625 17.328125 -17.484375 18.203125 -18.140625 C 19.078125 -18.804688 19.515625 -19.800781 19.515625 -21.125 C 19.515625 -22.457031 19.078125 -23.460938 18.203125 -24.140625 C 17.328125 -24.828125 16.421875 -25.171875 15.484375 -25.171875 L 9.828125 -25.171875 L 9.828125 -17.15625 Z M 15.53125 -17.15625 "/></g></g></g><g fill="#ffffff" fill-opacity="1"><g transform="translate(133.816994, 201.534143)"><g><path d="M 22.3125 -31.953125 C 22.550781 -32.410156 22.957031 -32.726562 23.53125 -32.90625 C 24.101562 -33.09375 24.828125 -33.1875 25.703125 -33.1875 C 26.585938 -33.1875 27.285156 -33.109375 27.796875 -32.953125 C 28.304688 -32.804688 28.695312 -32.625 28.96875 -32.40625 C 29.238281 -32.195312 29.453125 -31.894531 29.609375 -31.5 C 29.753906 -30.988281 29.828125 -30.207031 29.828125 -29.15625 L 29.828125 -4.03125 C 29.828125 -3.332031 29.800781 -2.8125 29.75 -2.46875 C 29.707031 -2.125 29.566406 -1.722656 29.328125 -1.265625 C 28.910156 -0.453125 27.734375 -0.046875 25.796875 -0.046875 C 23.691406 -0.046875 22.457031 -0.601562 22.09375 -1.71875 C 21.90625 -2.226562 21.8125 -3.015625 21.8125 -4.078125 L 21.8125 -13.265625 L 9.828125 -13.265625 L 9.828125 -4.03125 C 9.828125 -3.332031 9.800781 -2.8125 9.75 -2.46875 C 9.707031 -2.125 9.566406 -1.722656 9.328125 -1.265625 C 8.898438 -0.453125 7.722656 -0.046875 5.796875 -0.046875 C 3.679688 -0.046875 2.441406 -0.601562 2.078125 -1.71875 C 1.898438 -2.226562 1.8125 -3.015625 1.8125 -4.078125 L 1.8125 -29.203125 C 1.8125 -29.890625 1.832031 -30.40625 1.875 -30.75 C 1.925781 -31.101562 2.070312 -31.503906 2.3125 -31.953125 C 2.726562 -32.773438 3.90625 -33.1875 5.84375 -33.1875 C 7.957031 -33.1875 9.207031 -32.625 9.59375 -31.5 C 9.75 -30.988281 9.828125 -30.207031 9.828125 -29.15625 L 9.828125 -19.921875 L 21.8125 -19.921875 L 21.8125 -29.203125 C 21.8125 -29.890625 21.832031 -30.40625 21.875 -30.75 C 21.925781 -31.101562 22.070312 -31.503906 22.3125 -31.953125 Z M 22.3125 -31.953125 "/></g></g></g><g fill="#ffffff" fill-opacity="1"><g transform="translate(165.446102, 201.534143)"><g><path d="M 1.8125 -29.203125 C 1.8125 -29.890625 1.832031 -30.40625 1.875 -30.75 C 1.925781 -31.101562 2.070312 -31.503906 2.3125 -31.953125 C 2.726562 -32.773438 3.90625 -33.1875 5.84375 -33.1875 C 7.957031 -33.1875 9.207031 -32.625 9.59375 -31.5 C 9.75 -30.988281 9.828125 -30.207031 9.828125 -29.15625 L 9.828125 -3.984375 C 9.828125 -3.253906 9.800781 -2.722656 9.75 -2.390625 C 9.707031 -2.066406 9.566406 -1.675781 9.328125 -1.21875 C 8.898438 -0.40625 7.722656 0 5.796875 0 C 3.679688 0 2.441406 -0.570312 2.078125 -1.71875 C 1.898438 -2.195312 1.8125 -2.96875 1.8125 -4.03125 Z M 1.8125 -29.203125 "/></g></g></g><g fill="#ffffff" fill-opacity="1"><g transform="translate(177.075115, 201.534143)"><g><path d="M 22.21875 -16.796875 L 31.328125 -6.796875 C 32.347656 -5.640625 32.859375 -4.671875 32.859375 -3.890625 C 32.859375 -3.109375 32.273438 -2.1875 31.109375 -1.125 C 29.953125 -0.0703125 28.972656 0.453125 28.171875 0.453125 C 27.378906 0.453125 26.453125 -0.148438 25.390625 -1.359375 L 16.796875 -11.21875 L 8.1875 -1.359375 C 7.101562 -0.148438 6.175781 0.453125 5.40625 0.453125 C 4.632812 0.453125 3.648438 -0.0820312 2.453125 -1.15625 C 1.265625 -2.226562 0.671875 -3.140625 0.671875 -3.890625 C 0.671875 -4.648438 1.203125 -5.617188 2.265625 -6.796875 L 11.359375 -16.796875 L 2.265625 -26.796875 C 1.203125 -27.910156 0.671875 -28.859375 0.671875 -29.640625 C 0.671875 -30.429688 1.257812 -31.363281 2.4375 -32.4375 C 3.613281 -33.507812 4.601562 -34.046875 5.40625 -34.046875 C 6.207031 -34.046875 7.132812 -33.441406 8.1875 -32.234375 L 16.796875 -22.359375 L 25.390625 -32.234375 C 26.484375 -33.441406 27.410156 -34.046875 28.171875 -34.046875 C 28.941406 -34.046875 29.914062 -33.515625 31.09375 -32.453125 C 32.269531 -31.398438 32.859375 -30.460938 32.859375 -29.640625 C 32.859375 -28.828125 32.347656 -27.878906 31.328125 -26.796875 Z M 22.21875 -16.796875 "/></g></g></g><g fill="#ffffff" fill-opacity="1"><g transform="translate(210.604685, 201.534143)"><g/></g></g><g fill="#ffffff" fill-opacity="1"><g transform="translate(222.05271, 201.534143)"><g><path d="M 29.234375 0.046875 C 26.609375 0.046875 24.015625 -0.628906 21.453125 -1.984375 C 18.585938 -0.421875 15.691406 0.359375 12.765625 0.359375 C 5.003906 0.359375 1.125 -2.867188 1.125 -9.328125 C 1.125 -12.671875 2.863281 -15.78125 6.34375 -18.65625 C 5.132812 -21.332031 4.53125 -23.757812 4.53125 -25.9375 C 4.53125 -28.957031 5.429688 -31.191406 7.234375 -32.640625 C 9.046875 -34.085938 11.476562 -34.8125 14.53125 -34.8125 C 17.582031 -34.8125 19.890625 -34.085938 21.453125 -32.640625 C 23.023438 -31.191406 23.8125 -29.210938 23.8125 -26.703125 C 23.8125 -24.585938 22.953125 -22.6875 21.234375 -21 C 19.960938 -19.738281 18.179688 -18.335938 15.890625 -16.796875 C 17.671875 -14.441406 19.601562 -12.445312 21.6875 -10.8125 C 22.53125 -12.113281 23.117188 -13.441406 23.453125 -14.796875 C 23.753906 -16.128906 25.109375 -16.796875 27.515625 -16.796875 C 28.546875 -16.796875 29.320312 -16.660156 29.84375 -16.390625 C 30.375 -16.117188 30.675781 -15.835938 30.75 -15.546875 C 30.832031 -15.265625 30.859375 -14.894531 30.828125 -14.4375 C 30.703125 -12.144531 29.765625 -9.867188 28.015625 -7.609375 C 28.472656 -7.515625 28.894531 -7.46875 29.28125 -7.46875 C 31.632812 -7.46875 32.8125 -6.273438 32.8125 -3.890625 C 32.8125 -2.234375 32.539062 -1.160156 32 -0.671875 C 31.457031 -0.191406 30.535156 0.046875 29.234375 0.046875 Z M 11.671875 -26.484375 C 11.671875 -25.390625 11.929688 -24.164062 12.453125 -22.8125 C 13.867188 -23.71875 14.929688 -24.472656 15.640625 -25.078125 C 16.347656 -25.679688 16.703125 -26.253906 16.703125 -26.796875 C 16.703125 -28.117188 15.960938 -28.78125 14.484375 -28.78125 C 12.609375 -28.78125 11.671875 -28.015625 11.671875 -26.484375 Z M 13.078125 -6.34375 C 13.835938 -6.34375 14.519531 -6.398438 15.125 -6.515625 C 13.375 -8.085938 11.710938 -9.957031 10.140625 -12.125 C 9.441406 -11.25 9.09375 -10.347656 9.09375 -9.421875 C 9.09375 -7.367188 10.421875 -6.34375 13.078125 -6.34375 Z M 13.078125 -6.34375 "/></g></g></g><g fill="#ffffff" fill-opacity="1"><g transform="translate(255.899009, 201.534143)"><g/></g></g><g fill="#ffffff" fill-opacity="1"><g transform="translate(267.347049, 201.534143)"><g><path d="M 41.515625 -33 C 43.535156 -32.269531 44.546875 -31.304688 44.546875 -30.109375 C 44.546875 -29.710938 44.363281 -28.972656 44 -27.890625 L 35.3125 -2.765625 C 35.25 -2.546875 35.140625 -2.285156 34.984375 -1.984375 C 34.835938 -1.679688 34.4375 -1.28125 33.78125 -0.78125 C 33.132812 -0.289062 32.363281 -0.046875 31.46875 -0.046875 C 30.582031 -0.046875 29.816406 -0.289062 29.171875 -0.78125 C 28.523438 -1.28125 28.097656 -1.773438 27.890625 -2.265625 L 22.59375 -17.875 C 19.238281 -7.976562 17.53125 -2.9375 17.46875 -2.75 C 17.40625 -2.570312 17.269531 -2.316406 17.0625 -1.984375 C 16.851562 -1.660156 16.613281 -1.363281 16.34375 -1.09375 C 15.644531 -0.394531 14.8125 -0.046875 13.84375 -0.046875 C 12.882812 -0.046875 12.09375 -0.269531 11.46875 -0.71875 C 10.851562 -1.175781 10.441406 -1.628906 10.234375 -2.078125 L 9.90625 -2.765625 L 1.171875 -27.890625 C 0.835938 -28.878906 0.671875 -29.617188 0.671875 -30.109375 C 0.671875 -31.304688 1.6875 -32.253906 3.71875 -32.953125 C 4.59375 -33.253906 5.382812 -33.40625 6.09375 -33.40625 C 6.800781 -33.40625 7.34375 -33.160156 7.71875 -32.671875 C 8.09375 -32.191406 8.429688 -31.457031 8.734375 -30.46875 L 13.71875 -15.34375 L 18.65625 -30.234375 C 19.070312 -31.503906 19.835938 -32.378906 20.953125 -32.859375 C 21.441406 -33.078125 22.066406 -33.1875 22.828125 -33.1875 C 23.597656 -33.1875 24.316406 -32.9375 24.984375 -32.4375 C 25.648438 -31.9375 26.070312 -31.445312 26.25 -30.96875 L 31.453125 -15.25 L 36.4375 -30.46875 C 36.675781 -31.15625 36.867188 -31.664062 37.015625 -32 C 37.171875 -32.332031 37.453125 -32.65625 37.859375 -32.96875 C 38.265625 -33.289062 38.769531 -33.453125 39.375 -33.453125 C 39.976562 -33.453125 40.691406 -33.300781 41.515625 -33 Z M 41.515625 -33 "/></g></g></g><g fill="#ffffff" fill-opacity="1"><g transform="translate(312.550865, 201.534143)"><g><path d="M 9.828125 -8.015625 L 23.765625 -8.015625 C 24.460938 -8.015625 24.984375 -7.988281 25.328125 -7.9375 C 25.671875 -7.894531 26.070312 -7.753906 26.53125 -7.515625 C 27.34375 -7.085938 27.75 -5.910156 27.75 -3.984375 C 27.75 -1.867188 27.191406 -0.628906 26.078125 -0.265625 C 25.554688 -0.0859375 24.769531 0 23.71875 0 L 5.796875 0 C 3.679688 0 2.441406 -0.570312 2.078125 -1.71875 C 1.898438 -2.195312 1.8125 -2.96875 1.8125 -4.03125 L 1.8125 -29.203125 C 1.8125 -30.734375 2.097656 -31.78125 2.671875 -32.34375 C 3.242188 -32.90625 4.332031 -33.1875 5.9375 -33.1875 L 23.765625 -33.1875 C 24.460938 -33.1875 24.984375 -33.160156 25.328125 -33.109375 C 25.671875 -33.066406 26.070312 -32.925781 26.53125 -32.6875 C 27.34375 -32.257812 27.75 -31.082031 27.75 -29.15625 C 27.75 -27.039062 27.191406 -25.800781 26.078125 -25.4375 C 25.554688 -25.257812 24.769531 -25.171875 23.71875 -25.171875 L 9.828125 -25.171875 L 9.828125 -20.59375 L 18.78125 -20.59375 C 19.476562 -20.59375 20 -20.566406 20.34375 -20.515625 C 20.695312 -20.472656 21.097656 -20.332031 21.546875 -20.09375 C 22.359375 -19.675781 22.765625 -18.5 22.765625 -16.5625 C 22.765625 -14.457031 22.191406 -13.222656 21.046875 -12.859375 C 20.535156 -12.671875 19.75 -12.578125 18.6875 -12.578125 L 9.828125 -12.578125 Z M 9.828125 -8.015625 "/></g></g></g><g fill="#ffffff" fill-opacity="1"><g transform="translate(341.419786, 201.534143)"><g><path d="M 25.4375 -17.796875 C 27.21875 -15.679688 28.109375 -13.3125 28.109375 -10.6875 C 28.046875 -7.664062 27.007812 -5.132812 25 -3.09375 C 23 -1.0625 20.566406 -0.046875 17.703125 -0.046875 L 5.796875 -0.046875 C 3.679688 -0.046875 2.441406 -0.617188 2.078125 -1.765625 C 1.898438 -2.273438 1.8125 -3.0625 1.8125 -4.125 L 1.8125 -29.234375 C 1.8125 -29.960938 1.832031 -30.492188 1.875 -30.828125 C 1.925781 -31.160156 2.070312 -31.550781 2.3125 -32 C 2.726562 -32.8125 3.90625 -33.21875 5.84375 -33.21875 L 17.25 -33.21875 C 20.019531 -33.21875 22.34375 -32.253906 24.21875 -30.328125 C 26.175781 -28.367188 27.15625 -26.015625 27.15625 -23.265625 C 27.15625 -21.273438 26.582031 -19.453125 25.4375 -17.796875 Z M 20.09375 -11.140625 C 20.09375 -11.859375 20.007812 -12.425781 19.84375 -12.84375 C 19.675781 -13.269531 19.398438 -13.578125 19.015625 -13.765625 C 18.410156 -14.003906 17.5625 -14.125 16.46875 -14.125 C 15.382812 -14.125 14.570312 -14.332031 14.03125 -14.75 C 13.488281 -15.175781 13.21875 -16.046875 13.21875 -17.359375 C 13.21875 -18.671875 13.492188 -19.535156 14.046875 -19.953125 C 14.609375 -20.378906 15.539062 -20.59375 16.84375 -20.59375 C 18.050781 -20.59375 18.773438 -20.910156 19.015625 -21.546875 C 19.097656 -21.878906 19.140625 -22.421875 19.140625 -23.171875 C 19.140625 -23.929688 18.890625 -24.460938 18.390625 -24.765625 C 17.898438 -25.066406 17.15625 -25.21875 16.15625 -25.21875 L 9.828125 -25.21875 L 9.828125 -8.0625 L 17.25 -8.0625 C 19.144531 -8.0625 20.09375 -9.085938 20.09375 -11.140625 Z M 20.09375 -11.140625 "/></g></g></g><path stroke-linecap="butt" transform="matrix(0.9375, 0, 0, 0.9375, 0.0000045, 156.093741)" fill="none" stroke-linejoin="miter" d="M 27.89583 28.666678 L 36.383331 28.666678 C 38.124998 28.729178 39.191664 29.175012 39.574998 30.008345 C 39.899998 30.620845 40.058331 31.525012 40.058331 32.720845 L 40.058331 43.341679 C 40.058331 44.370846 39.608331 45.350013 38.704164 46.287513 C 35.999998 49.083346 31.945831 50.483346 26.541664 50.483346 C 21.74583 50.483346 17.579163 48.670846 14.033329 45.050013 C 10.491663 41.425012 8.716662 37.058345 8.716662 31.941678 C 8.716662 26.825011 10.520829 22.554178 14.129163 19.129178 C 17.73333 15.695844 21.98333 13.979177 26.87083 13.979177 C 30.674997 13.979177 34.262497 15.237511 37.641664 17.750011 C 38.508331 18.395844 38.941664 19.112511 38.941664 19.908344 C 38.941664 20.691678 38.570831 21.600011 37.833331 22.629178 C 36.583331 24.337511 35.437498 25.187511 34.399997 25.187511 C 33.795831 25.187511 32.816664 24.745845 31.466664 23.854178 C 30.116664 22.966678 28.504164 22.525011 26.63333 22.525011 C 24.191663 22.525011 22.016663 23.387511 20.116663 25.116678 C 18.212496 26.837511 17.262496 29.091678 17.262496 31.870845 C 17.262496 34.654179 18.229163 37.016679 20.162497 38.966679 C 22.09583 40.916679 24.28333 41.891679 26.729164 41.891679 C 28.49583 41.891679 30.091664 41.600012 31.512497 41.016679 L 31.512497 35.762512 L 27.69583 35.762512 C 26.69583 35.762512 25.991664 35.633345 25.574997 35.370845 C 25.15833 35.112512 24.88333 34.737512 24.749997 34.241679 C 24.62083 33.737512 24.55833 33.062512 24.55833 32.212512 C 24.55833 31.358345 24.629163 30.675012 24.77083 30.162512 C 24.92083 29.641678 25.187497 29.287512 25.574997 29.091678 C 26.154164 28.808345 26.929164 28.666678 27.89583 28.666678 Z M 70.995833 44.012513 C 71.475 45.175013 71.716667 46.012513 71.716667 46.520846 C 71.716667 47.750013 70.716667 48.77918 68.720833 49.612513 C 67.691666 50.06668 66.8625 50.295846 66.233333 50.295846 C 65.608333 50.295846 65.091666 50.14168 64.691666 49.833346 C 64.291666 49.52918 63.991666 49.212513 63.795833 48.89168 C 63.474999 48.279179 62.220833 45.362513 60.033332 40.145846 L 58.537499 40.250012 L 52.454165 40.250012 L 52.454165 45.695846 C 52.454165 46.445846 52.433332 47.004179 52.383332 47.370846 C 52.337499 47.741679 52.183332 48.166679 51.924999 48.645846 C 51.470832 49.51668 50.212498 49.95418 48.154165 49.95418 C 45.908332 49.95418 44.587498 49.35418 44.191665 48.162513 C 44.004165 47.620846 43.908331 46.783346 43.908331 45.650013 L 43.908331 18.858344 C 43.908331 18.120844 43.933331 17.566677 43.979165 17.195844 C 44.029165 16.829177 44.183331 16.400011 44.441665 15.912511 C 44.887498 15.045844 46.141665 14.616677 48.199998 14.616677 L 58.633332 14.616677 C 61.470833 14.616677 64.224999 15.645844 66.895833 17.704177 C 68.175 18.700011 69.233333 20.054178 70.066666 21.758344 C 70.908333 23.462511 71.329167 25.362511 71.329167 27.450011 C 71.329167 31.087512 70.120833 34.083345 67.708333 36.433345 C 68.416666 38.137512 69.5125 40.666679 70.995833 44.012513 Z M 52.454165 31.708345 L 58.633332 31.708345 C 59.566666 31.708345 60.499999 31.354178 61.424999 30.645845 C 62.362499 29.929178 62.829166 28.866678 62.829166 27.450011 C 62.829166 26.037511 62.362499 24.966678 61.424999 24.245845 C 60.499999 23.520845 59.537499 23.162511 58.537499 23.162511 L 52.454165 23.162511 Z M 94.783335 17.125011 L 107.816669 44.058346 C 108.366669 45.150013 108.641669 45.970846 108.641669 46.520846 C 108.641669 47.687513 107.708336 48.72918 105.837502 49.658346 C 104.745835 50.208346 103.883335 50.483346 103.258335 50.483346 C 102.629169 50.483346 102.112502 50.337513 101.712502 50.045846 C 101.312502 49.758346 101.020835 49.450013 100.841668 49.12918 C 100.666668 48.80418 100.420835 48.320846 100.095835 47.679179 L 97.587502 42.466679 L 84.208334 42.466679 L 81.695834 47.679179 C 81.375001 48.320846 81.125001 48.79168 80.941667 49.07918 C 80.770834 49.370846 80.483334 49.670846 80.083334 49.975013 C 79.683334 50.283346 79.166667 50.437513 78.5375 50.437513 C 77.908334 50.437513 77.05 50.162513 75.958334 49.612513 C 74.0875 48.71668 73.15 47.687513 73.15 46.520846 C 73.15 45.970846 73.425 45.150013 73.979167 44.058346 L 87.012501 17.079177 C 87.366668 16.333344 87.904168 15.733344 88.629168 15.287511 C 89.350001 14.837511 90.116668 14.616677 90.925001 14.616677 C 92.662501 14.616677 93.950001 15.450011 94.783335 17.125011 Z M 90.879168 28.712512 L 87.687501 35.325012 L 94.108335 35.325012 Z M 137.395838 21.758344 C 138.237504 23.462511 138.658338 25.362511 138.658338 27.450011 C 138.658338 29.541678 138.237504 31.433345 137.395838 33.120845 C 136.566671 34.808345 135.487504 36.154179 134.166671 37.150012 C 131.495837 39.216679 128.72917 40.250012 125.870837 40.250012 L 119.833336 40.250012 L 119.833336 45.695846 C 119.833336 46.445846 119.812503 47.004179 119.762503 47.370846 C 119.71667 47.741679 119.562503 48.166679 119.30417 48.645846 C 118.850003 49.51668 117.59167 49.95418 115.533336 49.95418 C 113.283336 49.95418 111.966669 49.35418 111.570836 48.162513 C 111.383336 47.620846 111.287503 46.783346 111.287503 45.650013 L 111.287503 18.858344 C 111.287503 18.120844 111.312503 17.566677 111.358336 17.195844 C 111.408336 16.829177 111.562503 16.400011 111.820836 15.912511 C 112.266669 15.045844 113.520836 14.616677 115.579169 14.616677 L 125.91667 14.616677 C 128.745837 14.616677 131.495837 15.645844 134.166671 17.704177 C 135.487504 18.700011 136.566671 20.054178 137.395838 21.758344 Z M 125.91667 31.708345 C 126.883337 31.708345 127.82917 31.354178 128.758337 30.645845 C 129.69167 29.929178 130.162504 28.866678 130.162504 27.450011 C 130.162504 26.037511 129.69167 24.966678 128.758337 24.245845 C 127.82917 23.520845 126.86667 23.162511 125.870837 23.162511 L 119.833336 23.162511 L 119.833336 31.708345 Z M 163.658339 15.925011 C 163.916673 15.437511 164.354173 15.100011 164.966673 14.908344 C 165.579173 14.712511 166.350006 14.616677 167.275006 14.616677 C 168.212506 14.616677 168.954173 14.695844 169.504173 14.862511 C 170.054173 15.020844 170.47084 15.212511 170.754173 15.441677 C 171.04584 15.658344 171.27084 15.979177 171.437506 16.395844 C 171.59584 16.945844 171.675006 17.783344 171.675006 18.904178 L 171.675006 45.695846 C 171.675006 46.445846 171.650006 47.004179 171.604173 47.370846 C 171.554173 47.741679 171.404173 48.166679 171.141673 48.645846 C 170.69584 49.51668 169.441673 49.95418 167.38334 49.95418 C 165.129173 49.95418 163.808339 49.35418 163.420839 48.162513 C 163.225006 47.620846 163.129173 46.783346 163.129173 45.650013 L 163.129173 35.854179 L 150.337505 35.854179 L 150.337505 45.695846 C 150.337505 46.445846 150.316672 47.004179 150.266672 47.370846 C 150.220838 47.741679 150.066672 48.166679 149.808338 48.645846 C 149.354172 49.51668 148.095838 49.95418 146.037505 49.95418 C 143.787505 49.95418 142.470838 49.35418 142.075005 48.162513 C 141.887505 47.620846 141.791671 46.783346 141.791671 45.650013 L 141.791671 18.858344 C 141.791671 18.120844 141.816671 17.566677 141.862505 17.195844 C 141.912505 16.829177 142.062505 16.400011 142.325005 15.912511 C 142.770838 15.045844 144.025005 14.616677 146.083338 14.616677 C 148.337505 14.616677 149.675005 15.208344 150.091672 16.395844 C 150.258338 16.945844 150.337505 17.783344 150.337505 18.904178 L 150.337505 28.758345 L 163.129173 28.758345 L 163.129173 18.858344 C 163.129173 18.120844 163.150006 17.566677 163.200006 17.195844 C 163.254173 16.829177 163.408339 16.404177 163.658339 15.925011 Z M 175.529173 18.858344 C 175.529173 18.120844 175.554173 17.566677 175.600007 17.195844 C 175.650007 16.829177 175.800007 16.400011 176.062507 15.912511 C 176.50834 15.045844 177.762507 14.616677 179.82084 14.616677 C 182.075007 14.616677 183.412507 15.208344 183.829174 16.395844 C 183.995841 16.945844 184.075007 17.783344 184.075007 18.904178 L 184.075007 45.758346 C 184.075007 46.525013 184.054174 47.087513 184.004174 47.441679 C 183.958341 47.795846 183.804174 48.212513 183.545841 48.69168 C 183.091674 49.562513 181.83334 50.000013 179.775007 50.000013 C 177.525007 50.000013 176.20834 49.387513 175.812507 48.162513 C 175.625007 47.650013 175.529173 46.829179 175.529173 45.695846 Z M 209.704176 32.083345 L 219.408343 42.762512 C 220.508343 43.979179 221.058343 45.008346 221.058343 45.850013 C 221.058343 46.683346 220.43751 47.666679 219.195843 48.795846 C 217.954176 49.920846 216.904176 50.483346 216.045843 50.483346 C 215.200009 50.483346 214.212509 49.837513 213.087509 48.550013 L 203.916675 38.025012 L 194.737508 48.550013 C 193.583341 49.837513 192.591675 50.483346 191.766674 50.483346 C 190.950008 50.483346 189.904174 49.912513 188.629174 48.775013 C 187.358341 47.625013 186.720841 46.654179 186.720841 45.850013 C 186.720841 45.041679 187.287507 44.012513 188.416674 42.762512 L 198.120842 32.083345 L 188.416674 21.416678 C 187.287507 20.229178 186.720841 19.220844 186.720841 18.387511 C 186.720841 17.545844 187.350008 16.554177 188.608341 15.416677 C 189.862508 14.270844 190.916674 13.695844 191.766674 13.695844 C 192.620841 13.695844 193.612508 14.341677 194.737508 15.629177 L 203.916675 26.154178 L 213.087509 15.629177 C 214.245843 14.341677 215.229176 13.695844 216.045843 13.695844 C 216.870843 13.695844 217.91251 14.262511 219.170843 15.391677 C 220.429176 16.516677 221.058343 17.516677 221.058343 18.387511 C 221.058343 19.250011 220.508343 20.262511 219.408343 21.416678 Z M 265.166679 50.045846 C 262.370846 50.045846 259.604179 49.325013 256.870845 47.879179 C 253.804179 49.550013 250.712512 50.387513 247.591678 50.387513 C 239.316678 50.387513 235.179177 46.941679 235.179177 40.050012 C 235.179177 36.483345 237.029177 33.166678 240.733344 30.104178 C 239.450011 27.241678 238.812511 24.654178 238.812511 22.337511 C 238.812511 19.112511 239.775011 16.733344 241.700011 15.191677 C 243.633345 13.645844 246.225011 12.870844 249.479178 12.870844 C 252.733345 12.870844 255.191679 13.645844 256.858345 15.191677 C 258.529179 16.733344 259.366679 18.837511 259.366679 21.512511 C 259.366679 23.766678 258.454179 25.791678 256.620845 27.591678 C 255.270845 28.945845 253.370845 30.441678 250.929178 32.083345 C 252.820845 34.600012 254.879179 36.725012 257.104179 38.458346 C 258.008345 37.079179 258.637512 35.662512 258.991679 34.216679 C 259.312512 32.795845 260.758346 32.083345 263.329179 32.083345 C 264.429179 32.083345 265.258346 32.229178 265.816679 32.520845 C 266.379179 32.812512 266.704179 33.108345 266.783346 33.416679 C 266.858346 33.720845 266.883346 34.116679 266.854179 34.595845 C 266.725013 37.045845 265.729179 39.479179 263.858346 41.891679 C 264.345846 41.983346 264.795846 42.033346 265.212513 42.033346 C 267.729179 42.033346 268.987513 43.304179 268.987513 45.850013 C 268.987513 47.620846 268.695846 48.762513 268.112513 49.27918 C 267.533346 49.79168 266.550013 50.045846 265.166679 50.045846 Z M 246.437511 21.758344 C 246.437511 22.912511 246.708345 24.216678 247.250011 25.670845 C 248.766678 24.704178 249.904178 23.900011 250.658345 23.254178 C 251.412512 22.612511 251.787512 21.995844 251.787512 21.416678 C 251.787512 20.000011 251.004178 19.295844 249.429178 19.295844 C 247.433345 19.295844 246.437511 20.116678 246.437511 21.758344 Z M 247.933345 43.245846 C 248.737512 43.245846 249.458345 43.179179 250.104178 43.045846 C 248.233345 41.370846 246.466678 39.375012 244.800011 37.058345 C 244.054178 37.991679 243.679178 38.958346 243.679178 39.958346 C 243.679178 42.150012 245.095845 43.245846 247.933345 43.245846 Z M 326.566683 14.804177 C 328.716683 15.575011 329.79585 16.604177 329.79585 17.891677 C 329.79585 18.308344 329.600017 19.100011 329.216683 20.262511 L 319.950016 47.054179 C 319.887516 47.279179 319.775016 47.554179 319.60835 47.879179 C 319.454183 48.200013 319.029183 48.62918 318.337516 49.162513 C 317.645849 49.69168 316.825016 49.95418 315.875016 49.95418 C 314.920849 49.95418 314.100016 49.69168 313.408349 49.162513 C 312.716682 48.62918 312.258349 48.104179 312.029182 47.583346 L 306.383349 30.929178 C 302.808348 41.491679 300.991682 46.866679 300.929182 47.066679 C 300.866682 47.254179 300.720848 47.525013 300.491682 47.879179 C 300.270848 48.233346 300.016682 48.55418 299.725015 48.845846 C 298.979181 49.583346 298.091681 49.95418 297.062515 49.95418 C 296.033348 49.95418 295.187515 49.712513 294.529181 49.233346 C 293.866681 48.745846 293.429181 48.262513 293.208348 47.783346 L 292.866681 47.054179 L 283.54168 20.262511 C 283.187514 19.200011 283.012514 18.412511 283.012514 17.891677 C 283.012514 16.604177 284.091681 15.587511 286.254181 14.850011 C 287.187514 14.529177 288.033347 14.366677 288.787514 14.366677 C 289.541681 14.366677 290.120848 14.625011 290.520848 15.145844 C 290.929181 15.658344 291.291681 16.441677 291.616681 17.504177 L 296.920848 33.629179 L 302.187515 17.750011 C 302.637515 16.400011 303.454182 15.462511 304.641682 14.945844 C 305.158349 14.725011 305.829182 14.616677 306.645849 14.616677 C 307.470849 14.616677 308.237515 14.883344 308.941682 15.416677 C 309.650016 15.941677 310.100016 16.462511 310.300016 16.970844 L 315.850016 33.733345 L 321.154183 17.504177 C 321.412516 16.762511 321.62085 16.216677 321.779183 15.862511 C 321.94585 15.512511 322.241683 15.166677 322.675016 14.829177 C 323.116683 14.487511 323.654183 14.320844 324.291683 14.320844 C 324.93335 14.320844 325.691683 14.483344 326.566683 14.804177 Z M 340.987518 41.454179 L 355.850019 41.454179 C 356.600019 41.454179 357.158352 41.479179 357.525019 41.525012 C 357.895852 41.570846 358.320852 41.725012 358.800019 41.983346 C 359.670852 42.433346 360.108352 43.691679 360.108352 45.758346 C 360.108352 48.004179 359.508352 49.320846 358.316685 49.70418 C 357.775019 49.900013 356.937519 50.000013 355.804185 50.000013 L 336.687517 50.000013 C 334.437517 50.000013 333.116684 49.387513 332.725017 48.162513 C 332.537517 47.650013 332.441684 46.829179 332.441684 45.695846 L 332.441684 18.858344 C 332.441684 17.216677 332.74585 16.100011 333.350017 15.512511 C 333.962517 14.912511 335.125017 14.616677 336.837517 14.616677 L 355.850019 14.616677 C 356.600019 14.616677 357.158352 14.637511 357.525019 14.687511 C 357.895852 14.733344 358.320852 14.887511 358.800019 15.145844 C 359.670852 15.591677 360.108352 16.845844 360.108352 18.904178 C 360.108352 21.162511 359.508352 22.479178 358.316685 22.866678 C 357.775019 23.062511 356.937519 23.162511 355.804185 23.162511 L 340.987518 23.162511 L 340.987518 28.029178 L 350.545852 28.029178 C 351.287518 28.029178 351.841685 28.058345 352.208352 28.112511 C 352.579185 28.158345 353.008352 28.308345 353.495852 28.558345 C 354.358352 29.016678 354.791685 30.270845 354.791685 32.329178 C 354.791685 34.587512 354.183352 35.908345 352.962518 36.291679 C 352.412518 36.479179 351.579185 36.575012 350.454185 36.575012 L 340.987518 36.575012 Z M 388.437521 31.020845 C 390.337521 33.279179 391.287521 35.804179 391.287521 38.600012 C 391.220854 41.825012 390.116687 44.520846 387.979187 46.700013 C 385.841687 48.86668 383.241687 49.95418 380.18752 49.95418 L 367.479186 49.95418 C 365.233353 49.95418 363.912519 49.34168 363.520852 48.112513 C 363.329186 47.570846 363.237519 46.733346 363.237519 45.604179 L 363.237519 18.812511 C 363.237519 18.041678 363.258352 17.479177 363.308352 17.125011 C 363.354186 16.770844 363.508352 16.350011 363.766686 15.862511 C 364.212519 15.000011 365.466686 14.566677 367.525019 14.566677 L 379.704187 14.566677 C 382.658354 14.566677 385.133354 15.595844 387.129187 17.654177 C 389.225021 19.745844 390.275021 22.258344 390.275021 25.187511 C 390.275021 27.308345 389.662521 29.254178 388.437521 31.020845 Z M 382.745854 38.116679 C 382.745854 37.350012 382.654187 36.737512 382.470854 36.291679 C 382.30002 35.837512 382.00002 35.512512 381.57502 35.325012 C 380.933354 35.066679 380.029187 34.937512 378.866687 34.937512 C 377.71252 34.937512 376.841687 34.712512 376.26252 34.262512 C 375.68752 33.808345 375.40002 32.879178 375.40002 31.483345 C 375.40002 30.083345 375.70002 29.158345 376.295853 28.712512 C 376.891687 28.258345 377.883353 28.029178 379.266687 28.029178 C 380.554187 28.029178 381.32502 27.691678 381.57502 27.016678 C 381.679187 26.662511 381.729187 26.083345 381.729187 25.283345 C 381.729187 24.475011 381.46252 23.912511 380.929187 23.595845 C 380.395854 23.275011 379.595853 23.112511 378.53752 23.112511 L 371.783353 23.112511 L 371.783353 41.408346 L 379.704187 41.408346 C 381.729187 41.408346 382.745854 40.312512 382.745854 38.116679 Z M 382.745854 38.116679 " stroke="#ffffff" stroke-width="1.388303" stroke-opacity="1" stroke-miterlimit="4"/></svg>